<?xml version="1.0" encoding="UTF-8" standalone="no"?>
<svg
   xmlns:dc="http://purl.org/dc/elements/1.1/"
   xmlns:cc="http://creativecommons.org/ns#"
   xmlns:rdf="http://www.w3.org/1999/02/22-rdf-syntax-ns#"
   xmlns:svg="http://www.w3.org/2000/svg"
   xmlns="http://www.w3.org/2000/svg"
   xmlns:sodipodi="http://sodipodi.sourceforge.net/DTD/sodipodi-0.dtd"
   xmlns:inkscape="http://www.inkscape.org/namespaces/inkscape"
   width="200"
   height="200"
   viewBox="0 0 52.916666 52.916666"
   version="1.1"
   id="svg947"
   inkscape:version="1.0.1 (c497b03c, 2020-09-10)"
   sodipodi:docname="folder.svg">
  <defs
     id="defs941" />
  <sodipodi:namedview
     id="base"
     pagecolor="#ffffff"
     bordercolor="#666666"
     borderopacity="1.0"
     inkscape:pageopacity="0.0"
     inkscape:pageshadow="2"
     inkscape:zoom="4"
     inkscape:cx="113.36209"
     inkscape:cy="97.291541"
     inkscape:document-units="mm"
     inkscape:current-layer="layer1"
     inkscape:document-rotation="0"
     showgrid="true"
     showguides="false"
     inkscape:window-width="1792"
     inkscape:window-height="1075"
     inkscape:window-x="0"
     inkscape:window-y="23"
     inkscape:window-maximized="1"
     units="px">
    <inkscape:grid
       type="xygrid"
       id="grid1518" />
  </sodipodi:namedview>
  <metadata
     id="metadata944">
    <rdf:RDF>
      <cc:Work
         rdf:about="">
        <dc:format>image/svg+xml</dc:format>
        <dc:type
           rdf:resource="http://purl.org/dc/dcmitype/StillImage" />
        <dc:title></dc:title>
      </cc:Work>
    </rdf:RDF>
  </metadata>
  <g
     inkscape:label="图层 1"
     inkscape:groupmode="layer"
     id="layer1">
    <path
       id="path4150"
       style="color:#000000;font-style:normal;font-variant:normal;font-weight:normal;font-stretch:normal;font-size:medium;line-height:normal;font-family:sans-serif;font-variant-ligatures:normal;font-variant-position:normal;font-variant-caps:normal;font-variant-numeric:normal;font-variant-alternates:normal;font-variant-east-asian:normal;font-feature-settings:normal;font-variation-settings:normal;text-indent:0;text-align:start;text-decoration:none;text-decoration-line:none;text-decoration-style:solid;text-decoration-color:#000000;letter-spacing:normal;word-spacing:normal;text-transform:none;writing-mode:lr-tb;direction:ltr;text-orientation:mixed;dominant-baseline:auto;baseline-shift:baseline;text-anchor:start;white-space:normal;shape-padding:0;shape-margin:0;inline-size:0;clip-rule:nonzero;display:inline;overflow:visible;visibility:visible;opacity:1;isolation:auto;mix-blend-mode:normal;color-interpolation:sRGB;color-interpolation-filters:linearRGB;solid-color:#000000;solid-opacity:1;vector-effect:none;fill:#333333;fill-opacity:1;fill-rule:nonzero;stroke:none;stroke-width:2.64583;stroke-linecap:butt;stroke-linejoin:round;stroke-miterlimit:4;stroke-dasharray:none;stroke-dashoffset:0;stroke-opacity:1;paint-order:markers stroke fill;color-rendering:auto;image-rendering:auto;shape-rendering:auto;text-rendering:auto;enable-background:accumulate;stop-color:#000000;stop-opacity:1"
       d="m 7.9375,7.9375 c -2.9086997,0 -5.2916666,2.382967 -5.2916666,5.291667 V 39.6875 c 0,2.908699 2.3829669,5.291666 5.2916666,5.291666 H 26.458333 V 42.333333 H 7.9375 c -1.4886752,0 -2.6458333,-1.157158 -2.6458333,-2.645833 V 13.229167 c 0,-1.488676 1.1571581,-2.645834 2.6458333,-2.645834 H 21.828125 L 25.4,15.345833 A 1.3230476,1.3230476 0 0 0 26.458333,15.875 h 10.583333 c 0.440973,0 1.184275,0.329547 1.75028,0.895553 0.566007,0.566005 0.895554,1.309307 0.895554,1.75028 v 2.645833 h 2.645833 v -2.645833 c 0,-1.429914 -0.719534,-2.670836 -1.670182,-3.621484 -0.950648,-0.950648 -2.191571,-1.670182 -3.621485,-1.670182 H 27.119791 L 23.547916,8.4666667 A 1.3230476,1.3230476 0 0 0 22.489583,7.9375 Z" />
    <path
       id="rect4135"
       style="fill:none;stroke:#333333;stroke-width:2.64583;stroke-linejoin:round;stroke-miterlimit:4;stroke-dasharray:none;stroke-opacity:1;paint-order:markers stroke fill"
       d="m 17.197919,22.423437 28.574998,0.06614 c 2.931583,0.0068 3.56024,0.920961 3.007923,2.144092 l -7.502172,16.613898 c -0.552317,1.22313 -3.188619,2.408678 -6.120203,2.408678 H 9.4938829 c -4.2022723,1e-6 -4.2022155,-1.322917 -4.46313,-2.276387 L 12.532925,24.765966 c 0.552317,-1.223131 1.733419,-2.349315 4.664994,-2.34253 z"
       sodipodi:nodetypes="sssssscsss" />
  </g>
</svg>
